# 3ds Max Wavefront OBJ Exporter v0.97b - (c)2007 guruware
# File Created: 22.04.2019 14:13:06

mtllib wheel_rear.mtl

#
# object wheel_rear_left
#

v  -0.6000 2.0250 -3.5074
v  -0.6000 1.0482 -3.9120
v  -0.6000 0.0000 -4.0500
v  -0.6000 -1.0482 -3.9120
v  -0.6000 -2.0250 -3.5074
v  -0.6000 -2.8638 -2.8638
v  -0.6000 -3.5074 -2.0250
v  -0.6000 -3.9120 -1.0482
v  -0.6000 -4.0500 0.0000
v  -0.6000 -3.9120 1.0482
v  -0.6000 -3.5074 2.0250
v  -0.6000 -2.8638 2.8638
v  -0.6000 -2.0250 3.5074
v  -0.6000 -1.0482 3.9120
v  -0.6000 0.0000 4.0500
v  -0.6000 1.0482 3.9120
v  -0.6000 2.0250 3.5074
v  -0.6000 2.8638 2.8638
v  -0.6000 3.5074 2.0250
v  -0.6000 3.9120 1.0482
v  -0.6000 4.0500 -0.0000
v  -0.6000 3.9120 -1.0482
v  -0.6000 3.5074 -2.0250
v  -0.6000 2.8638 -2.8638
v  6.0000 1.3976 -5.2160
v  6.0000 -0.0000 -5.4000
v  0.0000 0.0000 -5.4000
v  0.0000 1.3976 -5.2160
v  6.0000 2.7000 -4.6765
v  0.0000 2.7000 -4.6765
v  6.0000 3.8184 -3.8184
v  0.0000 3.8184 -3.8184
v  6.0000 4.6765 -2.7000
v  0.0000 4.6765 -2.7000
v  6.0000 5.2160 -1.3976
v  0.0000 5.2160 -1.3976
v  6.0000 5.4000 0.0000
v  0.0000 5.4000 -0.0000
v  6.0000 5.2160 1.3976
v  -0.0000 5.2160 1.3976
v  6.0000 4.6765 2.7000
v  -0.0000 4.6765 2.7000
v  6.0000 3.8184 3.8184
v  -0.0000 3.8184 3.8184
v  6.0000 2.7000 4.6765
v  -0.0000 2.7000 4.6765
v  6.0000 1.3976 5.2160
v  -0.0000 1.3976 5.2160
v  6.0000 0.0000 5.4000
v  -0.0000 0.0000 5.4000
v  6.0000 -1.3976 5.2160
v  -0.0000 -1.3976 5.2160
v  6.0000 -2.7000 4.6765
v  -0.0000 -2.7000 4.6765
v  6.0000 -3.8184 3.8184
v  -0.0000 -3.8184 3.8184
v  6.0000 -4.6765 2.7000
v  -0.0000 -4.6765 2.7000
v  6.0000 -5.2160 1.3976
v  -0.0000 -5.2160 1.3976
v  6.0000 -5.4000 0.0000
v  -0.0000 -5.4000 0.0000
v  6.0000 -5.2160 -1.3976
v  0.0000 -5.2160 -1.3976
v  6.0000 -4.6765 -2.7000
v  0.0000 -4.6765 -2.7000
v  6.0000 -3.8184 -3.8184
v  0.0000 -3.8184 -3.8184
v  6.0000 -2.7000 -4.6765
v  0.0000 -2.7000 -4.6765
v  6.0000 -1.3976 -5.2160
v  0.0000 -1.3976 -5.2160
v  6.6000 -3.5074 -2.0250
v  6.6000 -2.8638 -2.8638
v  6.6000 -2.0250 -3.5074
v  6.6000 -1.0482 -3.9120
v  6.6000 -0.0000 -4.0500
v  6.6000 1.0482 -3.9120
v  6.6000 2.0250 -3.5074
v  6.6000 2.8638 -2.8638
v  6.6000 3.5074 -2.0250
v  6.6000 3.9120 -1.0482
v  6.6000 4.0500 0.0000
v  6.6000 3.9120 1.0482
v  6.6000 3.5074 2.0250
v  6.6000 2.8638 2.8638
v  6.6000 2.0250 3.5074
v  6.6000 1.0482 3.9120
v  6.6000 0.0000 4.0500
v  6.6000 -1.0482 3.9120
v  6.6000 -2.0250 3.5074
v  6.6000 -2.8638 2.8638
v  6.6000 -3.5074 2.0250
v  6.6000 -3.9120 1.0482
v  6.6000 -4.0500 0.0000
v  6.6000 -3.9120 -1.0482
# 96 vertices

vn -1.0000 0.0000 -0.0000
vn 0.0000 0.2588 -0.9659
vn 0.0000 -0.0000 -1.0000
vn 0.0000 0.5000 -0.8660
vn 0.0000 0.7071 -0.7071
vn 0.0000 0.8660 -0.5000
vn 0.0000 0.9659 -0.2588
vn 0.0000 1.0000 0.0000
vn -0.0000 0.9659 0.2588
vn -0.0000 0.8660 0.5000
vn -0.0000 0.7071 0.7071
vn -0.0000 0.5000 0.8660
vn -0.0000 0.2588 0.9659
vn -0.0000 0.0000 1.0000
vn -0.0000 -0.2588 0.9659
vn -0.0000 -0.5000 0.8660
vn -0.0000 -0.7071 0.7071
vn -0.0000 -0.8660 0.5000
vn -0.0000 -0.9659 0.2588
vn -0.0000 -1.0000 0.0000
vn 0.0000 -0.9659 -0.2588
vn 0.0000 -0.8660 -0.5000
vn 0.0000 -0.7071 -0.7071
vn 0.0000 -0.5000 -0.8660
vn 0.0000 -0.2588 -0.9659
vn 1.0000 -0.0000 0.0000
vn -0.9138 -0.2872 -0.2872
vn -0.9138 -0.2031 -0.3517
vn -0.9138 -0.3517 -0.2031
vn -0.9138 -0.3923 -0.1051
vn -0.9138 -0.4061 -0.0000
vn -0.9138 -0.3923 0.1051
vn -0.9138 -0.3517 0.2031
vn -0.9138 -0.2872 0.2872
vn -0.9138 -0.2031 0.3517
vn -0.9138 -0.1051 0.3923
vn -0.9138 0.0000 0.4061
vn -0.9138 0.1051 0.3923
vn -0.9138 0.2031 0.3517
vn -0.9138 0.2872 0.2872
vn -0.9138 0.3517 0.2031
vn -0.9138 0.3923 0.1051
vn -0.9138 0.4061 -0.0000
vn -0.9138 0.3923 -0.1051
vn -0.9138 0.3517 -0.2031
vn -0.9138 0.2872 -0.2872
vn -0.9138 0.2031 -0.3517
vn -0.9138 0.1051 -0.3923
vn -0.9138 0.0000 -0.4061
vn -0.9138 -0.0000 -0.4061
vn -0.9138 -0.1051 -0.3923
vn 0.9138 0.1051 -0.3923
vn 0.9138 -0.0000 -0.4061
vn 0.9138 0.2031 -0.3517
vn 0.9138 0.2872 -0.2872
vn 0.9138 0.3517 -0.2031
vn 0.9138 0.3923 -0.1051
vn 0.9138 0.4061 0.0000
vn 0.9138 0.3923 0.1051
vn 0.9138 0.3517 0.2031
vn 0.9138 0.2872 0.2872
vn 0.9138 0.2031 0.3517
vn 0.9138 0.1051 0.3923
vn 0.9138 0.0000 0.4061
vn 0.9138 -0.1051 0.3923
vn 0.9138 -0.2031 0.3517
vn 0.9138 -0.2872 0.2872
vn 0.9138 -0.3517 0.2031
vn 0.9138 -0.3923 0.1051
vn 0.9138 -0.4061 0.0000
vn 0.9138 -0.3923 -0.1051
vn 0.9138 -0.3517 -0.2031
vn 0.9138 -0.2872 -0.2872
vn 0.9138 -0.2031 -0.3517
vn 0.9138 -0.1051 -0.3923
# 75 vertex normals

vt 0.3352 0.6203 -0.0000
vt 0.3502 0.5842 -0.0000
vt 0.3553 0.5453 -0.0000
vt 0.3502 0.5065 -0.0000
vt 0.3352 0.4703 -0.0000
vt 0.3114 0.4393 -0.0000
vt 0.2803 0.4154 -0.0000
vt 0.2441 0.4004 -0.0000
vt 0.2053 0.3953 -0.0000
vt 0.1665 0.4004 -0.0000
vt 0.1303 0.4154 -0.0000
vt 0.0992 0.4393 -0.0000
vt 0.0754 0.4703 -0.0000
vt 0.0604 0.5065 -0.0000
vt 0.0553 0.5453 -0.0000
vt 0.0604 0.5842 -0.0000
vt 0.0754 0.6203 -0.0000
vt 0.0992 0.6514 -0.0000
vt 0.1303 0.6752 -0.0000
vt 0.1665 0.6902 -0.0000
vt 0.2053 0.6953 -0.0000
vt 0.2441 0.6902 -0.0000
vt 0.2803 0.6752 -0.0000
vt 0.3114 0.6514 -0.0000
vt 0.3985 0.5971 0.9167
vt 0.4053 0.5453 0.9167
vt 0.4053 0.5453 0.0833
vt 0.3985 0.5971 0.0833
vt 0.3785 0.6453 0.9167
vt 0.3785 0.6453 0.0833
vt 0.3467 0.6868 0.9167
vt 0.3467 0.6868 0.0833
vt 0.3053 0.7185 0.9167
vt 0.3053 0.7185 0.0833
vt 0.2571 0.7385 0.9167
vt 0.2571 0.7385 0.0833
vt 0.2053 0.7453 0.9167
vt 0.2053 0.7453 0.0833
vt 0.1535 0.7385 0.9167
vt 0.1535 0.7385 0.0833
vt 0.1053 0.7185 0.9167
vt 0.1053 0.7185 0.0833
vt 0.0639 0.6868 0.9167
vt 0.0639 0.6868 0.0833
vt 0.0321 0.6453 0.9167
vt 0.0321 0.6453 0.0833
vt 0.0121 0.5971 0.9167
vt 0.0121 0.5971 0.0833
vt 0.0053 0.5453 0.9167
vt 0.0053 0.5453 0.0833
vt 0.0121 0.4936 0.9167
vt 0.0121 0.4936 0.0833
vt 0.0321 0.4453 0.9167
vt 0.0321 0.4453 0.0833
vt 0.0639 0.4039 0.9167
vt 0.0639 0.4039 0.0833
vt 0.1053 0.3721 0.9167
vt 0.1053 0.3721 0.0833
vt 0.1535 0.3522 0.9167
vt 0.1535 0.3522 0.0833
vt 0.2053 0.3453 0.9167
vt 0.2053 0.3453 0.0833
vt 0.2571 0.3522 0.9167
vt 0.2571 0.3522 0.0833
vt 0.3053 0.3721 0.9167
vt 0.3053 0.3721 0.0833
vt 0.3467 0.4039 0.9167
vt 0.3467 0.4039 0.0833
vt 0.3785 0.4453 0.9167
vt 0.3785 0.4453 0.0833
vt 0.3985 0.4936 0.9167
vt 0.3985 0.4936 0.0833
vt 0.2803 0.4154 1.0000
vt 0.3114 0.4393 1.0000
vt 0.3352 0.4703 1.0000
vt 0.3502 0.5065 1.0000
vt 0.3553 0.5453 1.0000
vt 0.3502 0.5842 1.0000
vt 0.3352 0.6203 1.0000
vt 0.3114 0.6514 1.0000
vt 0.2803 0.6752 1.0000
vt 0.2441 0.6902 1.0000
vt 0.2053 0.6953 1.0000
vt 0.1665 0.6902 1.0000
vt 0.1303 0.6752 1.0000
vt 0.0992 0.6514 1.0000
vt 0.0754 0.6203 1.0000
vt 0.0604 0.5842 1.0000
vt 0.0553 0.5453 1.0000
vt 0.0604 0.5065 1.0000
vt 0.0754 0.4703 1.0000
vt 0.0992 0.4393 1.0000
vt 0.1303 0.4154 1.0000
vt 0.1665 0.4004 1.0000
vt 0.2053 0.3953 1.0000
vt 0.2441 0.4004 1.0000
# 96 texture coords

o wheel_rear_left
g wheel_rear_left
usemtl Material__42
s 1
f 1/1/1 2/2/1 3/3/1 
f 3/3/1 4/4/1 5/5/1 
f 5/5/1 6/6/1 7/7/1 
f 3/3/1 5/5/1 7/7/1 
f 7/7/1 8/8/1 9/9/1 
f 9/9/1 10/10/1 11/11/1 
f 7/7/1 9/9/1 11/11/1 
f 3/3/1 7/7/1 11/11/1 
f 11/11/1 12/12/1 13/13/1 
f 13/13/1 14/14/1 15/15/1 
f 11/11/1 13/13/1 15/15/1 
f 15/15/1 16/16/1 17/17/1 
f 17/17/1 18/18/1 19/19/1 
f 15/15/1 17/17/1 19/19/1 
f 11/11/1 15/15/1 19/19/1 
f 3/3/1 11/11/1 19/19/1 
f 19/19/1 20/20/1 21/21/1 
f 21/21/1 22/22/1 23/23/1 
f 19/19/1 21/21/1 23/23/1 
f 3/3/1 19/19/1 23/23/1 
f 1/1/1 3/3/1 23/23/1 
f 1/1/1 23/23/1 24/24/1 
s 8
f 25/25/2 26/26/3 27/27/3 
f 27/27/3 28/28/2 25/25/2 
f 29/29/4 25/25/2 28/28/2 
f 28/28/2 30/30/4 29/29/4 
f 31/31/5 29/29/4 30/30/4 
f 30/30/4 32/32/5 31/31/5 
f 33/33/6 31/31/5 32/32/5 
f 32/32/5 34/34/6 33/33/6 
f 35/35/7 33/33/6 34/34/6 
f 34/34/6 36/36/7 35/35/7 
f 37/37/8 35/35/7 36/36/7 
f 36/36/7 38/38/8 37/37/8 
f 39/39/9 37/37/8 38/38/8 
f 38/38/8 40/40/9 39/39/9 
f 41/41/10 39/39/9 40/40/9 
f 40/40/9 42/42/10 41/41/10 
f 43/43/11 41/41/10 42/42/10 
f 42/42/10 44/44/11 43/43/11 
f 45/45/12 43/43/11 44/44/11 
f 44/44/11 46/46/12 45/45/12 
f 47/47/13 45/45/12 46/46/12 
f 46/46/12 48/48/13 47/47/13 
f 49/49/14 47/47/13 48/48/13 
f 48/48/13 50/50/14 49/49/14 
f 51/51/15 49/49/14 50/50/14 
f 50/50/14 52/52/15 51/51/15 
f 53/53/16 51/51/15 52/52/15 
f 52/52/15 54/54/16 53/53/16 
f 55/55/17 53/53/16 54/54/16 
f 54/54/16 56/56/17 55/55/17 
f 57/57/18 55/55/17 56/56/17 
f 56/56/17 58/58/18 57/57/18 
f 59/59/19 57/57/18 58/58/18 
f 58/58/18 60/60/19 59/59/19 
f 61/61/20 59/59/19 60/60/19 
f 60/60/19 62/62/20 61/61/20 
f 63/63/21 61/61/20 62/62/20 
f 62/62/20 64/64/21 63/63/21 
f 65/65/22 63/63/21 64/64/21 
f 64/64/21 66/66/22 65/65/22 
f 67/67/23 65/65/22 66/66/22 
f 66/66/22 68/68/23 67/67/23 
f 69/69/24 67/67/23 68/68/23 
f 68/68/23 70/70/24 69/69/24 
f 71/71/25 69/69/24 70/70/24 
f 70/70/24 72/72/25 71/71/25 
f 26/26/3 71/71/25 72/72/25 
f 72/72/25 27/27/3 26/26/3 
s 1
f 73/73/26 74/74/26 75/75/26 
f 75/75/26 76/76/26 77/77/26 
f 77/77/26 78/78/26 79/79/26 
f 75/75/26 77/77/26 79/79/26 
f 79/79/26 80/80/26 81/81/26 
f 81/81/26 82/82/26 83/83/26 
f 79/79/26 81/81/26 83/83/26 
f 75/75/26 79/79/26 83/83/26 
f 83/83/26 84/84/26 85/85/26 
f 85/85/26 86/86/26 87/87/26 
f 83/83/26 85/85/26 87/87/26 
f 87/87/26 88/88/26 89/89/26 
f 89/89/26 90/90/26 91/91/26 
f 87/87/26 89/89/26 91/91/26 
f 83/83/26 87/87/26 91/91/26 
f 75/75/26 83/83/26 91/91/26 
f 91/91/26 92/92/26 93/93/26 
f 93/93/26 94/94/26 95/95/26 
f 91/91/26 93/93/26 95/95/26 
f 75/75/26 91/91/26 95/95/26 
f 73/73/26 75/75/26 95/95/26 
f 73/73/26 95/95/26 96/96/26 
s 512
f 6/6/27 5/5/28 70/70/28 
f 70/70/28 68/68/27 6/6/27 
f 7/7/29 6/6/27 68/68/27 
f 68/68/27 66/66/29 7/7/29 
f 8/8/30 7/7/29 66/66/29 
f 66/66/29 64/64/30 8/8/30 
f 9/9/31 8/8/30 64/64/30 
f 64/64/30 62/62/31 9/9/31 
f 10/10/32 9/9/31 62/62/31 
f 62/62/31 60/60/32 10/10/32 
f 11/11/33 10/10/32 60/60/32 
f 60/60/32 58/58/33 11/11/33 
f 12/12/34 11/11/33 58/58/33 
f 58/58/33 56/56/34 12/12/34 
f 13/13/35 12/12/34 56/56/34 
f 56/56/34 54/54/35 13/13/35 
f 14/14/36 13/13/35 54/54/35 
f 54/54/35 52/52/36 14/14/36 
f 15/15/37 14/14/36 52/52/36 
f 52/52/36 50/50/37 15/15/37 
f 16/16/38 15/15/37 50/50/37 
f 50/50/37 48/48/38 16/16/38 
f 17/17/39 16/16/38 48/48/38 
f 48/48/38 46/46/39 17/17/39 
f 18/18/40 17/17/39 46/46/39 
f 46/46/39 44/44/40 18/18/40 
f 19/19/41 18/18/40 44/44/40 
f 44/44/40 42/42/41 19/19/41 
f 20/20/42 19/19/41 42/42/41 
f 42/42/41 40/40/42 20/20/42 
f 21/21/43 20/20/42 40/40/42 
f 40/40/42 38/38/43 21/21/43 
f 22/22/44 21/21/43 38/38/43 
f 38/38/43 36/36/44 22/22/44 
f 23/23/45 22/22/44 36/36/44 
f 36/36/44 34/34/45 23/23/45 
f 24/24/46 23/23/45 34/34/45 
f 34/34/45 32/32/46 24/24/46 
f 1/1/47 24/24/46 32/32/46 
f 32/32/46 30/30/47 1/1/47 
f 2/2/48 1/1/47 30/30/47 
f 30/30/47 28/28/48 2/2/48 
f 3/3/49 2/2/48 28/28/48 
f 28/28/48 27/27/50 3/3/49 
f 5/5/28 4/4/51 72/72/51 
f 72/72/51 70/70/28 5/5/28 
f 4/4/51 3/3/49 27/27/50 
f 27/27/50 72/72/51 4/4/51 
f 78/78/52 77/77/53 26/26/53 
f 26/26/53 25/25/52 78/78/52 
f 79/79/54 78/78/52 25/25/52 
f 25/25/52 29/29/54 79/79/54 
f 80/80/55 79/79/54 29/29/54 
f 29/29/54 31/31/55 80/80/55 
f 81/81/56 80/80/55 31/31/55 
f 31/31/55 33/33/56 81/81/56 
f 82/82/57 81/81/56 33/33/56 
f 33/33/56 35/35/57 82/82/57 
f 83/83/58 82/82/57 35/35/57 
f 35/35/57 37/37/58 83/83/58 
f 84/84/59 83/83/58 37/37/58 
f 37/37/58 39/39/59 84/84/59 
f 85/85/60 84/84/59 39/39/59 
f 39/39/59 41/41/60 85/85/60 
f 86/86/61 85/85/60 41/41/60 
f 41/41/60 43/43/61 86/86/61 
f 87/87/62 86/86/61 43/43/61 
f 43/43/61 45/45/62 87/87/62 
f 88/88/63 87/87/62 45/45/62 
f 45/45/62 47/47/63 88/88/63 
f 89/89/64 88/88/63 47/47/63 
f 47/47/63 49/49/64 89/89/64 
f 90/90/65 89/89/64 49/49/64 
f 49/49/64 51/51/65 90/90/65 
f 91/91/66 90/90/65 51/51/65 
f 51/51/65 53/53/66 91/91/66 
f 92/92/67 91/91/66 53/53/66 
f 53/53/66 55/55/67 92/92/67 
f 93/93/68 92/92/67 55/55/67 
f 55/55/67 57/57/68 93/93/68 
f 94/94/69 93/93/68 57/57/68 
f 57/57/68 59/59/69 94/94/69 
f 95/95/70 94/94/69 59/59/69 
f 59/59/69 61/61/70 95/95/70 
f 96/96/71 95/95/70 61/61/70 
f 61/61/70 63/63/71 96/96/71 
f 73/73/72 96/96/71 63/63/71 
f 63/63/71 65/65/72 73/73/72 
f 74/74/73 73/73/72 65/65/72 
f 65/65/72 67/67/73 74/74/73 
f 75/75/74 74/74/73 67/67/73 
f 67/67/73 69/69/74 75/75/74 
f 76/76/75 75/75/74 69/69/74 
f 69/69/74 71/71/75 76/76/75 
f 77/77/53 76/76/75 71/71/75 
f 71/71/75 26/26/53 77/77/53 
# 188 faces

